<?xml version="1.0" encoding="utf-8"?>
<!-- Generator: Adobe Illustrator 23.0.3, SVG Export Plug-In . SVG Version: 6.00 Build 0)  -->
<svg version="1.1" id="Layer_1" xmlns="http://www.w3.org/2000/svg" xmlns:xlink="http://www.w3.org/1999/xlink" x="0px" y="0px"
	 viewBox="0 0 512 512" style="enable-background:new 0 0 512 512;" xml:space="preserve">
<style type="text/css">
	.st0{fill:#0000ff;}
	.st1{fill:#0000e5;}
	.st2{fill:#FFFFFF;}
</style>
<path class="st0" d="M333.55,2.35C323.87,0.96,314.06,0,304,0h-96C93.31,0,0,93.31,0,208v96c0,104.63,77.75,191.23,178.45,205.65
	L333.55,2.35z"/>
<path class="st1" d="M333.55,2.35l-155.1,507.3c9.68,1.39,19.49,2.35,29.55,2.35h96c114.69,0,208-93.31,208-208v-96
	C512,103.37,434.25,16.77,333.55,2.35z"/>
<path class="st2" d="M414.08,112.17c-11.41-44.74-85.59-59.45-155.8-34.5c-41.78,14.84-87.02,38.14-119.54,68.56
	c-38.67,36.17-44.84,67.65-42.3,80.81c8.97,46.42,72.57,76.76,98.71,99.27v0.14c-7.71,3.8-64.13,32.35-77.34,61.54
	c-13.93,30.8,2.22,52.9,12.91,55.87c33.13,9.22,67.13-7.36,85.4-34.61c17.63-26.3,16.16-60.26,8.5-77.15
	c10.57-2.79,22.89-4.04,38.55-2.21c44.19,5.16,52.86,32.75,51.2,44.3c-1.66,11.55-10.93,17.9-14.03,19.81
	c-3.1,1.92-4.05,2.58-3.78,4.01c0.38,2.07,1.81,2,4.45,1.55c3.64-0.61,23.2-9.39,24.04-30.71c1.07-27.06-24.87-57.33-70.79-56.54
	c-18.91,0.33-30.8,2.13-39.39,5.32c-0.64-0.72-1.28-1.44-1.95-2.16c-28.39-30.29-80.87-51.71-78.64-92.43
	c0.81-14.8,5.95-53.78,100.84-101.06c77.73-38.73,139.95-28.07,150.71-4.45c15.36,33.75-33.26,96.47-113.98,105.52
	c-30.75,3.45-46.95-8.47-50.98-12.91c-4.24-4.67-4.87-4.88-6.46-4.01c-2.58,1.43-0.94,5.55,0,8.01c2.41,6.27,12.3,17.39,29.16,22.93
	c14.83,4.87,50.94,7.54,94.61-9.35C387.11,208.78,425.3,156.16,414.08,112.17z M206.01,340.17c3.66,13.56,3.26,26.2-0.52,37.65
	c-0.42,1.27-0.88,2.53-1.39,3.77c-0.5,1.24-1.05,2.47-1.63,3.68c-2.92,6.06-6.84,11.73-11.63,16.96
	c-14.64,15.97-35.09,22-43.85,16.92c-9.47-5.49-4.73-28,12.24-45.94c18.26-19.3,44.52-31.71,44.52-31.71l-0.04-0.08
	C204.46,341.01,205.23,340.59,206.01,340.17z"/>
</svg>
